# xmcd
#
# Track frame offsets:
#	150
#	16805
#	29370
#	42684
#	57875
#	74148
#	88111
#	107001
#	123019
#	139129
#
# Disc length: 2065 seconds
#
# Revision: 2
# Processed by: cddbd v1.5.2PL0 Copyright (c) Steve Scherf et al.
# Submitted via: EasyCDDAExtractor 15.3.0.1
#
DISCID=8b080f0a
DTITLE=Mariana - La Niña Buena
DYEAR=2005
DGENRE=Latin
TTITLE0=Una De Dos
TTITLE1=Como Tu Sabes
TTITLE2=No Vuelvo Contigo
TTITLE3=Bendito Favor
TTITLE4=La Luna Y Tu
TTITLE5=No Es Normal
TTITLE6=Lucas, Lucas
TTITLE7=Dime Que Me Necesitas
TTITLE8=El Amor De Tu Vida
TTITLE9=Que Nos Paso
EXTD=
EXTT0=
EXTT1=
EXTT2=
EXTT3=
EXTT4=
EXTT5=
EXTT6=
EXTT7=
EXTT8=
EXTT9=
PLAYORDER=
